<?xml version="1.0" encoding="iso-8859-1"?>
<!-- Generator: Adobe Illustrator 19.0.0, SVG Export Plug-In . SVG Version: 6.00 Build 0)  -->
<svg version="1.1" id="Layer_1" xmlns="http://www.w3.org/2000/svg" xmlns:xlink="http://www.w3.org/1999/xlink" x="0px" y="0px"
	 viewBox="0 0 512 512" style="enable-background:new 0 0 512 512;" xml:space="preserve">
<g>
	<g>
		<g>
			<path fill="#041f42" d="M256,108.936c-81.091,0-147.064,65.973-147.064,147.064S174.909,403.064,256,403.064S403.064,337.091,403.064,256
				S337.091,108.936,256,108.936z M256,370.383c-63.071,0-114.383-51.312-114.383-114.383c0-63.071,51.312-114.383,114.383-114.383
				c63.071,0,114.383,51.312,114.383,114.383C370.383,319.071,319.071,370.383,256,370.383z"/>
			<path fill="#041f42" d="M256,83.708c9.024,0,16.34-7.316,16.34-16.34V16.34C272.34,7.316,265.024,0,256,0c-9.024,0-16.34,7.316-16.34,16.34
				v51.027C239.66,76.391,246.976,83.708,256,83.708z"/>
			<path fill="#041f42" d="M256,428.292c-9.024,0-16.34,7.316-16.34,16.34v51.027c0,9.024,7.316,16.34,16.34,16.34c9.024,0,16.34-7.316,16.34-16.34
				v-51.027C272.34,435.609,265.024,428.292,256,428.292z"/>
			<path fill="#041f42" d="M111.062,134.171c6.38,6.381,16.727,6.381,23.109,0c6.381-6.38,6.381-16.727,0-23.109L98.089,74.981
				c-6.38-6.381-16.727-6.381-23.109,0c-6.381,6.38-6.381,16.727,0,23.109L111.062,134.171z"/>
			<path fill="#041f42" d="M400.938,377.829c-6.38-6.381-16.727-6.38-23.109,0c-6.381,6.38-6.381,16.727,0,23.109l36.081,36.082
				c6.38,6.382,16.727,6.382,23.109,0c6.382-6.38,6.382-16.727,0-23.109L400.938,377.829z"/>
			<path fill="#041f42" d="M83.708,256c0-9.024-7.316-16.34-16.34-16.34H16.34C7.316,239.66,0,246.976,0,256c0,9.024,7.316,16.34,16.34,16.34
				h51.027C76.391,272.34,83.708,265.024,83.708,256z"/>
			<path fill="#041f42" d="M495.66,239.66h-51.027c-9.024,0-16.34,7.316-16.34,16.34c0,9.024,7.316,16.34,16.34,16.34h51.027
				c9.024,0,16.34-7.316,16.34-16.34C512,246.976,504.684,239.66,495.66,239.66z"/>
			<path fill="#041f42" d="M111.062,377.829l-36.081,36.082c-6.381,6.382-6.381,16.727,0,23.109c6.38,6.382,16.727,6.383,23.109,0l36.081-36.082
				c6.381-6.381,6.381-16.727,0-23.109C127.79,371.447,117.443,371.447,111.062,377.829z"/>
			<path fill="#041f42" d="M400.938,134.171l36.081-36.082c6.382-6.381,6.382-16.727,0-23.109c-6.38-6.381-16.727-6.381-23.109,0l-36.081,36.082
				c-6.381,6.381-6.381,16.727,0,23.109C384.21,140.552,394.557,140.553,400.938,134.171z"/>
		</g>
	</g>
</g>
<g>
</g>
<g>
</g>
<g>
</g>
<g>
</g>
<g>
</g>
<g>
</g>
<g>
</g>
<g>
</g>
<g>
</g>
<g>
</g>
<g>
</g>
<g>
</g>
<g>
</g>
<g>
</g>
<g>
</g>
</svg>
